<svg xmlns="http://www.w3.org/2000/svg" viewBox="0 0 400 400" width="400" height="400">
  <defs>
    <linearGradient id="robotGradient" x1="0%" y1="0%" x2="100%" y2="100%">
      <stop offset="0%" stop-color="#00ffff"/>
      <stop offset="50%" stop-color="#00ff88"/>
      <stop offset="100%" stop-color="#ff0080"/>
    </linearGradient>
    <filter id="robotGlow" x="-20%" y="-20%" width="140%" height="140%">
      <feGaussianBlur stdDeviation="3" result="coloredBlur"/>
      <feMerge> 
        <feMergeNode in="coloredBlur"/>
        <feMergeNode in="SourceGraphic"/>
      </feMerge>
    </filter>
  </defs>
  
  <!-- Robot Body -->
  <rect x="150" y="200" width="100" height="120" rx="20" fill="url(#robotGradient)" opacity="0.8" filter="url(#robotGlow)"/>
  
  <!-- Robot Head -->
  <rect x="160" y="140" width="80" height="80" rx="15" fill="url(#robotGradient)" opacity="0.9" filter="url(#robotGlow)"/>
  
  <!-- Eyes -->
  <circle cx="180" cy="170" r="8" fill="#00ffff"/>
  <circle cx="220" cy="170" r="8" fill="#00ffff"/>
  
  <!-- Arms -->
  <rect x="110" y="220" width="30" height="80" rx="15" fill="url(#robotGradient)" opacity="0.7" filter="url(#robotGlow)"/>
  <rect x="260" y="220" width="30" height="80" rx="15" fill="url(#robotGradient)" opacity="0.7" filter="url(#robotGlow)"/>
  
  <!-- Legs -->
  <rect x="165" y="330" width="25" height="50" rx="12" fill="url(#robotGradient)" opacity="0.7" filter="url(#robotGlow)"/>
  <rect x="210" y="330" width="25" height="50" rx="12" fill="url(#robotGradient)" opacity="0.7" filter="url(#robotGlow)"/>
  
  <!-- Chest Panel -->
  <rect x="170" y="240" width="60" height="40" rx="8" fill="none" stroke="#00ffff" stroke-width="2"/>
  
  <!-- Circuit Pattern Background -->
  <g opacity="0.3">
    <path d="M50 50 L100 50 L100 100 L150 100" stroke="#00ffff" stroke-width="1" fill="none"/>
    <path d="M300 80 L350 80 L350 130 L320 130" stroke="#00ff88" stroke-width="1" fill="none"/>
    <path d="M80 300 L130 300 L130 350 L180 350" stroke="#ff0080" stroke-width="1" fill="none"/>
    <circle cx="100" cy="50" r="3" fill="#00ffff"/>
    <circle cx="350" cy="80" r="3" fill="#00ff88"/>
    <circle cx="130" cy="300" r="3" fill="#ff0080"/>
  </g>
  
  <!-- Floating Particles -->
  <g opacity="0.6">
    <circle cx="80" cy="120" r="2" fill="#00ffff">
      <animate attributeName="cy" values="120;100;120" dur="3s" repeatCount="indefinite"/>
    </circle>
    <circle cx="320" cy="180" r="2" fill="#00ff88">
      <animate attributeName="cy" values="180;160;180" dur="2.5s" repeatCount="indefinite"/>
    </circle>
    <circle cx="150" cy="80" r="2" fill="#ff0080">
      <animate attributeName="cy" values="80;60;80" dur="3.5s" repeatCount="indefinite"/>
    </circle>
  </g>
  
  <!-- Robot Animation -->
  <g>
    <animateTransform attributeName="transform" type="translate" values="0,0; 0,-10; 0,0" dur="4s" repeatCount="indefinite"/>
  </g>
</svg>